<svg xmlns='http://www.w3.org/2000/svg' xmlns:xlink='http://www.w3.org/1999/xlink' width='472' height='512' viewPort='0 0 472 512'>
  <g transform="translate(20,20)"><g class="human" transform="translate(0,0)"><polygon points="16,472 80,472 96,312 48,276.8 0,312" style="fill: rgb(5, 52, 72);"></polygon><circle cx="48" cy="232" r="40" style="fill: rgb(5, 52, 72);"></circle></g><g class="human" transform="translate(112,0)"><polygon points="16,472 80,472 96,248 48,212.8 0,248" style="fill: rgb(5, 52, 72);"></polygon><circle cx="48" cy="168" r="40" style="fill: rgb(5, 52, 72);"></circle></g><g class="human" transform="translate(224,0)"><polygon points="16,472 80,472 96,184 48,148.8 0,184" style="fill: rgb(5, 52, 72);"></polygon><circle cx="48" cy="104" r="40" style="fill: rgb(5, 52, 72);"></circle></g><g class="human" transform="translate(336,0)"><polygon points="16,472 80,472 96,120 48,84.8 0,120" style="fill: rgb(66, 145, 191);"></polygon><circle cx="48" cy="40" r="40" style="fill: rgb(66, 145, 191);"></circle></g></g>
</svg>